<?xml version="1.0" encoding="UTF-8" standalone="no"?>
<!-- Created with Inkscape (http://www.inkscape.org/) -->

<svg
   width="210mm"
   height="297mm"
   viewBox="0 0 210 297"
   version="1.1"
   id="svg5"
   xml:space="preserve"
   inkscape:version="1.2.1 (9c6d41e410, 2022-07-14)"
   sodipodi:docname="icon.svg"
   xmlns:inkscape="http://www.inkscape.org/namespaces/inkscape"
   xmlns:sodipodi="http://sodipodi.sourceforge.net/DTD/sodipodi-0.dtd"
   xmlns="http://www.w3.org/2000/svg"
   xmlns:svg="http://www.w3.org/2000/svg"><sodipodi:namedview
     id="namedview7"
     pagecolor="#ffffff"
     bordercolor="#000000"
     borderopacity="0.25"
     inkscape:showpageshadow="2"
     inkscape:pageopacity="0.0"
     inkscape:pagecheckerboard="0"
     inkscape:deskcolor="#d1d1d1"
     inkscape:document-units="mm"
     showgrid="false"
     inkscape:zoom="2.025849"
     inkscape:cx="402.79408"
     inkscape:cy="759.43468"
     inkscape:window-width="1920"
     inkscape:window-height="991"
     inkscape:window-x="-9"
     inkscape:window-y="-9"
     inkscape:window-maximized="1"
     inkscape:current-layer="layer1" /><defs
     id="defs2" /><g
     inkscape:label="Layer 1"
     inkscape:groupmode="layer"
     id="layer1"><g
       id="g2485"
       transform="translate(-6.0077692,-38.397481)"><path
         id="path343"
         style="fill:none;stroke:#000000;stroke-width:5.17967"
         d="M 79.279237,175.13282 C 67.032436,170.0182 58.417774,157.85493 58.417773,143.66404 c -10e-7,-18.80509 15.127585,-34.04963 33.788414,-34.04963 18.660823,0 33.788413,15.24454 33.788413,34.04963"
         sodipodi:nodetypes="cssc" /><path
         style="fill:#000000;stroke-width:0.186068"
         d="m 116.87636,152.95683 c 0.26172,-1.059 0.0632,-1.85838 -0.66924,-2.69535 -0.35269,-0.403 -2.46948,-2.4707 -4.704,-4.5949 -3.61565,-3.43714 -4.14481,-3.88697 -4.80834,-4.08745 -0.60788,-0.18366 -1.54403,-0.0367 -5.06878,0.79568 -2.377763,0.56152 -4.392944,0.99557 -4.47818,0.96456 -0.08529,-0.031 -0.714197,-2.37002 -1.397687,-5.19778 -0.971075,-4.01761 -1.169658,-5.12768 -0.908544,-5.07868 0.183778,0.0345 1.397469,0.50497 2.697078,1.04552 3.090973,1.28565 3.352323,1.35189 4.410553,1.11781 l 0.8967,-0.19835 1.51224,-2.32783 c 2.19437,-3.37795 2.50078,-4.05979 2.28971,-5.0955 -0.14058,-0.68986 -0.29577,-0.9323 -0.81772,-1.27748 -0.87161,-0.57641 -1.68842,-0.63046 -2.46368,-0.16303 -0.55391,0.33398 -0.80319,0.6607 -1.74642,2.2891 -1.02266,1.76554 -1.12448,1.89199 -1.44348,1.79263 -0.188778,-0.0588 -1.605976,-0.62724 -3.149323,-1.26324 -1.543369,-0.63601 -3.193689,-1.21176 -3.667389,-1.27944 -1.013398,-0.1448 -8.409484,1.51409 -9.470619,2.1242 -0.371087,0.21336 -2.302315,1.97093 -4.291623,3.90571 -3.210812,3.12279 -3.643638,3.60028 -3.85481,4.25249 -0.178712,0.55195 -0.0861,1.63742 0.372286,4.36348 0.335597,1.99584 0.709791,3.8203 0.83153,4.05437 0.601486,1.15648 2.386321,1.5357 3.414898,0.72561 0.935185,-0.73656 1.003317,-1.40111 0.477987,-4.66206 -0.360845,-2.23992 -0.41097,-3.05567 -0.199721,-3.25003 0.155126,-0.14272 1.214308,-1.17411 2.353732,-2.29197 1.13943,-1.11786 2.116349,-1.9755 2.170939,-1.90587 0.05459,0.0696 0.704179,2.78299 1.443538,6.02969 0.739366,3.2467 1.563813,6.3439 1.832112,6.88267 0.403072,0.80937 0.664713,1.09749 1.505918,1.65829 1.653623,1.10241 2.258181,1.10127 7.05941,-0.0134 2.320819,-0.5388 5.098675,-1.16912 6.173025,-1.40069 l 1.95333,-0.42104 3.64442,3.49359 c 4.06575,3.89746 4.34872,4.08127 5.86454,3.8091 0.71799,-0.12892 1.65207,-0.70388 1.95673,-1.20441 0.053,-0.0877 0.17873,-0.49065 0.2789,-0.89599 z m -20.253139,5.05667 c 0.03341,-0.48209 -0.209098,-1.97211 -0.538937,-3.31116 l -0.599699,-2.43464 -1.46953,0.26257 c -1.544267,0.27594 -2.409427,0.20062 -3.853642,-0.33546 l -0.874361,-0.32457 0.530027,2.17626 0.530032,2.17624 -3.899027,2.27522 c -4.346282,2.53619 -4.850123,3.00013 -4.831226,4.44859 0.01591,1.21957 0.345924,1.87403 1.254649,2.48823 1.555804,1.05154 1.739546,0.99324 7.575789,-2.40345 3.11183,-1.81107 5.33976,-3.2229 5.63186,-3.56888 0.358304,-0.42434 0.499001,-0.79916 0.544065,-1.44895 z m -4.631173,-36.11076 c 0.259408,-2.12889 -0.52195,-3.80166 -2.348783,-5.0284 -2.553004,-1.71438 -5.6772,-1.10708 -7.39138,1.43677 -1.598553,2.37227 -1.145881,5.39162 1.06832,7.12553 3.333697,2.61058 8.162929,0.6426 8.671843,-3.5339 z"
         id="path179"
         sodipodi:nodetypes="ssssssssssccsssssssssssssssssssssscsscsssscsscccsssscssscss" /><path
         style="fill:#000000;stroke-width:0.531063"
         d="m 110.21741,202.26712 c -1.47607,-0.26002 -5.10748,-1.46436 -8.06982,-2.67632 -7.036682,-2.87888 -12.440132,-4.3699 -16.159352,-4.45899 -2.44723,-0.0586 -2.75978,-0.15725 -1.6817,-0.53045 0.7283,-0.25212 3.70341,-0.3621 6.61133,-0.24437 4.7343,0.19167 6.10181,0.49524 13.078672,2.90322 6.6889,2.3086 8.53979,2.73558 13.07868,3.01717 l 5.28714,0.32799 -3.06099,0.8307 c -4.46047,1.2105 -6.08581,1.35921 -9.08396,0.83105 z m 18.82342,-3.77577 c 3.08566,-2.3728 9.98635,-5.80599 13.8138,-6.87256 3.00928,-0.83855 4.79725,-1.01123 8.62636,-0.83309 4.19865,0.19534 5.33969,0.46501 8.72604,2.06237 2.14269,1.0107 3.7235,1.84885 3.51291,1.86256 -0.21057,0.0134 -2.08888,-0.33981 -4.17404,-0.78561 -2.73422,-0.58457 -5.42033,-0.74256 -9.63484,-0.56668 -6.59613,0.27527 -11.0879,1.38276 -18.08753,4.45972 -3.77279,1.65847 -4.19751,1.76123 -2.7827,0.67329 z m -16.56015,-2.25703 c -1.76176,-0.24722 -6.64539,-1.50886 -10.85252,-2.80362 -7.641052,-2.35156 -7.655962,-2.35386 -13.771262,-2.11295 -3.36708,0.13273 -6.62282,0.39817 -7.23503,0.59008 -0.61219,0.19191 0.27574,-0.32763 1.9732,-1.15454 8.00077,-3.89754 14.31267,-4.04014 25.297252,-0.5715 9.38079,2.96217 12.59356,2.99115 19.75716,0.17812 12.69456,-4.98503 20.06186,-5.79754 28.79488,-3.17563 1.90978,0.57336 3.59981,1.23032 3.75563,1.45989 0.15583,0.22957 -0.90584,0.0789 -2.35924,-0.33481 -3.77592,-1.07485 -10.33948,-1.03941 -14.05163,0.0758 -1.68354,0.50579 -5.71011,2.12378 -8.94797,3.59551 -8.94996,4.06812 -15.20438,5.2579 -22.36047,4.25367 z m 50.83326,-8.28958 c -1.00481,-1.10238 -8.33152,-4.17825 -11.73327,-4.92577 -1.68352,-0.36996 -5.31494,-0.65566 -8.06982,-0.63492 -4.55771,0.0343 -5.78583,0.28268 -13.63521,2.75714 -10.74671,3.38785 -13.69874,3.51449 -23.0964,0.9909 -9.965592,-2.67609 -15.584922,-2.59204 -22.261582,0.33299 -1.70534,0.7471 -2.35176,0.89418 -1.66962,0.37984 2.13088,-1.6067 8.02874,-3.8364 11.24145,-4.2499 3.75282,-0.48302 7.575312,-3.8e-4 11.757042,1.48447 3.96571,1.40814 8.94253,1.97584 12.66369,1.4445 1.67808,-0.23961 6.23661,-1.6064 10.13006,-3.03732 6.19211,-2.27571 7.69859,-2.63191 12.02417,-2.84298 6.09508,-0.29743 9.97948,0.43201 15.00428,2.81765 3.27907,1.5568 9.65907,6.11442 8.64138,6.17304 -0.1921,0.0115 -0.64038,-0.29926 -0.99617,-0.68964 z m -83.175442,-1.97491 c 1.6326,-2.58839 23.210612,-32.8338 23.568242,-33.03504 0.45052,-0.25353 12.2554,16.04307 12.2554,16.91857 0,0.45178 -7.20625,13.22684 -7.4611,13.22684 -0.075,0 -1.99578,-0.59534 -4.26834,-1.32298 -3.50532,-1.12237 -4.764942,-1.2835 -8.305982,-1.06249 -4.80906,0.30016 -9.39245,1.72985 -13.38124,4.17399 -1.53518,0.94068 -2.61831,1.43619 -2.40698,1.10111 z m 27.146252,-22.59909 c 1.27859,0.91578 1.63868,0.98657 2.04511,0.40206 0.27133,-0.39018 0.49713,-0.87333 0.50183,-1.07367 0.009,-0.36343 -4.76105,-7.3377 -5.60557,-8.19675 -0.2449,-0.2491 -1.95532,1.67322 -3.80091,4.27183 -2.532722,3.56607 -3.207982,4.88674 -2.753552,5.38531 0.48035,0.52703 1.01146,0.35331 2.627052,-0.85926 l 2.02499,-1.51984 0.36125,1.40161 c 1.24666,4.837 1.10234,4.71735 2.12263,1.7597 l 0.92535,-2.68245 z m 54.5919,20.65083 c -4.9435,-3.66491 -10.89658,-5.85323 -17.25272,-6.34201 -5.12677,-0.39423 -9.01342,0.38175 -17.52202,3.4983 -7.23879,2.65144 -11.94044,3.44153 -15.40777,2.58923 l -1.76357,-0.43351 13.38359,-23.18384 13.38358,-23.18386 1.24261,2.15353 c 21.48931,37.24233 27.07432,47.00703 26.87243,46.98322 -0.0843,-0.01 -1.40564,-0.94642 -2.93613,-2.08106 z m -24.15821,-29.19294 c 0.69032,-1.04519 1.31719,-1.97744 1.39305,-2.07169 0.0758,-0.0942 1.28354,0.43994 2.68374,1.18711 4.1876,2.23456 4.03447,0.78125 -0.80832,-7.67121 -2.26885,-3.96002 -4.25702,-7.11851 -4.41813,-7.01888 -0.76098,0.47061 -8.03568,13.8877 -7.69705,14.19604 0.21249,0.19349 1.50016,-0.47924 2.86146,-1.49494 l 2.4751,-1.84673 0.65967,2.67687 c 1.16942,4.74532 1.09919,4.69498 2.85048,2.04343 z"
         id="path289"
         sodipodi:nodetypes="ssssssscsssssscssssssssssssssssssssssssssssssscscsssssscsscsssscsscssssscccscsssssssscss" /></g><path
       id="path2487"
       style="fill:none;stroke:#ffcc00;stroke-width:2.34935"
       d="m 38.515592,212.0593 c -5.5548,-2.31984 -9.462166,-7.83676 -9.462166,-14.27334 -1e-6,-8.52945 6.861442,-15.44394 15.325463,-15.44394 8.464018,0 15.325462,6.91449 15.325462,15.44394"
       sodipodi:nodetypes="cssc" /><path
       style="fill:#552200;stroke-width:0.0843951"
       d="m 55.568577,202.0009 c 0.118709,-0.48033 0.02867,-0.8429 -0.303548,-1.22253 -0.15997,-0.18279 -1.120086,-1.12064 -2.133601,-2.08411 -1.639955,-1.55899 -1.879967,-1.76302 -2.180926,-1.85396 -0.275717,-0.0833 -0.700328,-0.0166 -2.299054,0.3609 -1.078486,0.25469 -1.992514,0.45156 -2.031175,0.4375 -0.03868,-0.0141 -0.32394,-1.07497 -0.633951,-2.35757 -0.440452,-1.82227 -0.530524,-2.32577 -0.41209,-2.30354 0.08336,0.0156 0.633852,0.22904 1.223318,0.47422 1.401977,0.58313 1.520518,0.61318 2.000501,0.507 l 0.406718,-0.09 0.685909,-1.05584 c 0.995304,-1.53214 1.134283,-1.8414 1.038547,-2.31117 -0.06376,-0.3129 -0.134153,-0.42287 -0.370894,-0.57943 -0.395338,-0.26144 -0.76582,-0.28596 -1.117455,-0.074 -0.251238,0.15149 -0.364305,0.29968 -0.792127,1.03827 -0.463849,0.8008 -0.510032,0.85816 -0.654721,0.81309 -0.08563,-0.0267 -0.728425,-0.2845 -1.428444,-0.57297 -0.700028,-0.28848 -1.448566,-0.54962 -1.663423,-0.58032 -0.459648,-0.0657 -3.814302,0.68675 -4.295603,0.96348 -0.168315,0.0968 -1.044265,0.89396 -1.946558,1.77152 -1.456333,1.41641 -1.652651,1.63298 -1.748432,1.92881 -0.08106,0.25034 -0.03905,0.74268 0.168858,1.97915 0.152217,0.90525 0.321941,1.73278 0.377158,1.83894 0.272817,0.52455 1.082368,0.69655 1.548901,0.32912 0.424173,-0.33408 0.455076,-0.6355 0.216801,-2.11458 -0.163669,-1.01596 -0.186404,-1.38596 -0.09059,-1.47412 0.07036,-0.0647 0.550775,-0.53254 1.067585,-1.03957 0.516813,-0.50703 0.959916,-0.89603 0.984677,-0.86445 0.02476,0.0316 0.319395,1.26228 0.654747,2.7349 0.335356,1.47261 0.709301,2.87741 0.830994,3.12178 0.182822,0.36711 0.301495,0.49779 0.683042,0.75215 0.750036,0.50002 1.024246,0.49951 3.201947,-0.006 1.052658,-0.24438 2.312614,-0.53028 2.799909,-0.63531 l 0.885974,-0.19097 1.653006,1.58459 c 1.844108,1.76778 1.972455,1.85115 2.659988,1.7277 0.32566,-0.0585 0.749332,-0.31926 0.887517,-0.54628 0.02404,-0.0398 0.08107,-0.22255 0.126501,-0.4064 z m -9.186247,2.29357 c 0.01515,-0.21867 -0.09484,-0.8945 -0.244447,-1.50185 l -0.272006,-1.10428 -0.666537,0.11909 c -0.700436,0.12516 -1.092848,0.091 -1.747902,-0.15216 l -0.396586,-0.14721 0.240405,0.98709 0.240408,0.98708 -1.768488,1.03197 c -1.97135,1.15035 -2.199878,1.36078 -2.191306,2.01776 0.0072,0.55316 0.156901,0.85 0.569073,1.12859 0.705668,0.47695 0.789008,0.4505 3.436162,-1.09014 1.411437,-0.82145 2.421963,-1.46181 2.554451,-1.61874 0.162517,-0.19247 0.226333,-0.36248 0.246773,-0.6572 z m -2.100569,-16.37882 c 0.117661,-0.9656 -0.236741,-1.72432 -1.065341,-2.28074 -1.15797,-0.77759 -2.575016,-0.50214 -3.352519,0.65168 -0.725058,1.076 -0.519739,2.44549 0.484559,3.23194 1.51207,1.18408 3.702473,0.29147 3.933301,-1.60288 z"
       id="path2489"
       sodipodi:nodetypes="ssssssssssccsssssssssssssssssssssscsscsssscsscccsssscssscss" /><path
       style="fill:#005500;stroke-width:0.240875"
       d="m 52.548267,224.36665 c -0.669503,-0.11794 -2.316608,-0.66419 -3.660241,-1.2139 -3.191638,-1.30578 -5.64249,-1.98207 -7.329422,-2.02247 -1.109994,-0.0266 -1.251758,-0.0713 -0.762771,-0.2406 0.330336,-0.11436 1.679761,-0.16424 2.998711,-0.11084 2.147344,0.0869 2.767607,0.22463 5.932113,1.31682 3.033895,1.04711 3.873406,1.24078 5.932117,1.3685 l 2.398097,0.14877 -1.388378,0.37678 c -2.023143,0.54905 -2.76035,0.6165 -4.120226,0.37694 z m 8.537768,-1.71258 c 1.399567,-1.07624 4.529524,-2.63343 6.265546,-3.1172 1.364924,-0.38034 2.175896,-0.45867 3.912672,-0.37787 1.904388,0.0886 2.421931,0.21092 3.957883,0.93544 0.971863,0.45842 1.688874,0.83858 1.593356,0.8448 -0.09551,0.006 -0.947457,-0.15413 -1.893226,-0.35633 -1.240164,-0.26514 -2.458507,-0.3368 -4.370089,-0.25703 -2.991817,0.12485 -5.029156,0.62718 -8.203989,2.0228 -1.71123,0.75224 -1.903871,0.79885 -1.262153,0.30539 z m -7.511213,-1.02373 c -0.799084,-0.11213 -3.01416,-0.68437 -4.922394,-1.27164 -3.465764,-1.0666 -3.472527,-1.06764 -6.246253,-0.95837 -1.527212,0.0602 -3.003923,0.1806 -3.281604,0.26764 -0.277672,0.087 0.125068,-0.1486 0.894988,-0.52367 3.628921,-1.76781 6.49182,-1.83249 11.474113,-0.25921 4.25486,1.34355 5.712081,1.3567 8.961286,0.0808 5.757891,-2.26107 9.099489,-2.6296 13.060538,-1.44038 0.866222,0.26006 1.632771,0.55804 1.703447,0.66217 0.07068,0.10412 -0.410863,0.0358 -1.070084,-0.15186 -1.71265,-0.48752 -4.689694,-0.47145 -6.37342,0.0344 -0.763606,0.22941 -2.589943,0.96328 -4.058544,1.63082 -4.059447,1.84518 -6.896274,2.38483 -10.142073,1.92934 z m 23.05652,-3.75991 c -0.455753,-0.50001 -3.77894,-1.89514 -5.321877,-2.23419 -0.763597,-0.16781 -2.410706,-0.29739 -3.660241,-0.28799 -2.067248,0.0156 -2.624288,0.12822 -6.184543,1.25056 -4.874402,1.53664 -6.213359,1.59408 -10.47587,0.44945 -4.520109,-1.2138 -7.068877,-1.17568 -10.09722,0.15103 -0.773494,0.33887 -1.066692,0.40558 -0.757292,0.17229 0.966506,-0.72876 3.641608,-1.74008 5.098802,-1.92764 1.702172,-0.21908 3.435945,-1.7e-4 5.332659,0.67332 1.798733,0.63869 4.056077,0.89618 5.74389,0.65518 0.761129,-0.10868 2.828748,-0.72862 4.594707,-1.37764 2.808564,-1.0322 3.491861,-1.19376 5.453821,-1.28949 2.764555,-0.13491 4.526408,0.19594 6.805514,1.278 1.487293,0.70612 4.381079,2.77333 3.919484,2.79992 -0.08713,0.005 -0.290458,-0.13574 -0.451834,-0.3128 z m -37.726013,-0.89577 c 0.7405,-1.17402 10.527673,-14.89248 10.689883,-14.98375 0.204343,-0.115 5.558701,7.27668 5.558701,7.67378 0,0.20491 -3.26855,5.99932 -3.384143,5.99932 -0.03402,0 -0.905229,-0.27003 -1.935997,-0.60007 -1.589914,-0.50907 -2.161242,-0.58216 -3.767357,-0.48191 -2.181253,0.13614 -4.260148,0.78461 -6.06935,1.8932 -0.696314,0.42667 -1.187591,0.65141 -1.091737,0.49943 z m 12.312767,-10.2503 c 0.579932,0.41537 0.743258,0.44748 0.927604,0.18236 0.123067,-0.17697 0.225484,-0.39612 0.227615,-0.48699 0.0041,-0.16484 -2.159476,-3.32817 -2.542527,-3.71781 -0.111079,-0.11298 -0.886877,0.75893 -1.723984,1.93758 -1.148771,1.61747 -1.45505,2.21649 -1.248933,2.44263 0.217873,0.23904 0.458769,0.16025 1.191556,-0.38974 l 0.918478,-0.68936 0.163853,0.63573 c 0.565449,2.19393 0.49999,2.13966 0.962764,0.79815 l 0.419712,-1.21668 z m 24.761332,9.36663 c -2.242231,-1.6623 -4.942379,-2.65486 -7.825343,-2.87656 -2.325357,-0.17881 -4.088231,0.17315 -7.947489,1.58673 -3.283309,1.20262 -5.415844,1.56098 -6.988526,1.1744 l -0.799905,-0.19663 6.070415,-10.51553 6.070411,-10.51553 0.563613,0.97678 c 9.746939,16.89206 12.280141,21.32105 12.188569,21.31025 -0.03824,-0.005 -0.637558,-0.42927 -1.331745,-0.94391 z M 65.021952,202.8499 c 0.313109,-0.47407 0.597439,-0.89691 0.631847,-0.93966 0.03438,-0.0427 0.582178,0.19954 1.217268,0.53844 1.899377,1.01353 1.829921,0.35435 -0.366631,-3.47944 -1.029085,-1.79616 -1.930863,-3.22876 -2.003938,-3.18357 -0.345158,0.21346 -3.644755,6.29907 -3.491162,6.43892 0.09638,0.0878 0.68043,-0.21737 1.297876,-0.67806 l 1.122635,-0.83762 0.299208,1.21415 c 0.530416,2.15234 0.498561,2.12951 1.292897,0.92684 z"
       id="path2491"
       sodipodi:nodetypes="ssssssscsssssscssssssssssssssssssssssssssssssscscsssssscsscsssscsscssssscccscsssssssscss" /><g
       id="g2785"><text
         xml:space="preserve"
         style="font-size:22.7115px;fill:#000000;stroke:none;stroke-width:38.3771;stroke-dasharray:none"
         x="90.116531"
         y="205.2589"
         id="text2549"><tspan
           sodipodi:role="line"
           id="tspan2547"
           style="font-style:italic;font-variant:normal;font-weight:normal;font-stretch:normal;font-family:'Times New Roman';-inkscape-font-specification:'Times New Roman,  Italic';fill:#000000;stroke:none;stroke-width:38.3771"
           x="90.116531"
           y="205.2589">limono</tspan></text><g
         id="g2661"
         transform="translate(-2.8732809,1.3060368)"><path
           style="fill:#000000;stroke:none;stroke-width:5.36501;stroke-dasharray:none"
           d="m 87.765672,185.58782 5.093541,18.41512 -16.325458,-0.39181 z"
           id="path2655"
           sodipodi:nodetypes="cccc" /><path
           style="fill:#ffffff;stroke:none;stroke-width:5.36501;stroke-dasharray:none"
           d="m 87.504465,188.06928 2.166578,7.83302 c -1.841259,-0.70683 -4.033442,-0.92776 -7.002805,-0.0726 z"
           id="path2657"
           sodipodi:nodetypes="cccc" /></g></g><text
       xml:space="preserve"
       style="font-style:italic;font-variant:normal;font-weight:normal;font-stretch:normal;font-size:9.53976px;font-family:'Times New Roman';-inkscape-font-specification:'Times New Roman,  Italic';fill:#005500;stroke:none;stroke-width:16.12;stroke-dasharray:none;fill-opacity:1"
       x="106.33322"
       y="192.82704"
       id="text2789"><tspan
         sodipodi:role="line"
         id="tspan2787"
         style="fill:#005500;stroke-width:16.1199;fill-opacity:1"
         x="106.33322"
         y="192.82704">mount</tspan></text><text
       xml:space="preserve"
       style="font-style:italic;font-variant:normal;font-weight:normal;font-stretch:normal;font-size:5.73021px;font-family:'Times New Roman';-inkscape-font-specification:'Times New Roman,  Italic';letter-spacing:2.42102px;fill:#005500;fill-opacity:1;stroke:none;stroke-width:9.68272;stroke-dasharray:none"
       x="82.885361"
       y="196.4118"
       id="text3069"
       transform="scale(0.92557969,1.080404)"><tspan
         sodipodi:role="line"
         id="tspan3067"
         style="font-style:normal;font-variant:normal;font-weight:normal;font-stretch:normal;font-family:'Times New Roman';-inkscape-font-specification:'Times New Roman, ';stroke-width:9.68264"
         x="82.885361"
         y="196.4118">T R A I L   R U N</tspan></text></g></svg>
